<svg width="162" height="48" viewBox="0 0 162 48" fill="none" xmlns="http://www.w3.org/2000/svg">
<g clip-path="url(#clip0_929_269)">
<g clip-path="url(#clip1_929_269)">
<path d="M160.837 42.322C160.837 44.8612 158.78 46.918 156.236 46.918H5.67321C3.13041 46.918 1.06641 44.8612 1.06641 42.322V5.67036C1.06641 3.13236 3.13041 1.06836 5.67321 1.06836H156.235C158.78 1.06836 160.836 3.13236 160.836 5.67036L160.837 42.322Z" fill="black"/>
<path d="M36.151 23.7414C36.1162 19.8738 39.3178 17.9922 39.4642 17.9046C37.651 15.261 34.8406 14.8998 33.853 14.871C31.4926 14.6226 29.203 16.2834 28.0006 16.2834C26.7742 16.2834 24.9226 14.895 22.927 14.9358C20.359 14.9754 17.9566 16.4622 16.639 18.771C13.9198 23.4786 15.9478 30.3966 18.553 34.2018C19.8562 36.0654 21.379 38.1462 23.3722 38.073C25.3222 37.9926 26.0506 36.8298 28.4038 36.8298C30.7354 36.8298 31.4194 38.073 33.4522 38.0262C35.545 37.9926 36.8626 36.1542 38.1202 34.2738C39.6262 32.1378 40.231 30.0342 40.255 29.9262C40.2058 29.9094 36.1906 28.377 36.151 23.7414Z" fill="white"/>
<path d="M32.3125 12.3677C33.3613 11.0561 34.0789 9.27174 33.8797 7.46094C32.3617 7.52814 30.4633 8.51094 29.3701 9.79374C28.4029 10.9241 27.5389 12.7769 27.7621 14.5193C29.4673 14.6465 31.2181 13.6589 32.3125 12.3677Z" fill="white"/>
<path d="M64.3726 37.8055H61.6474L60.1546 33.1147H54.9658L53.5438 37.8055H50.8906L56.0314 21.8359H59.2066L64.3726 37.8055ZM59.7046 31.1467L58.3546 26.9767C58.2118 26.5507 57.9442 25.5475 57.5494 23.9683H57.5014C57.3442 24.6475 57.091 25.6507 56.743 26.9767L55.417 31.1467H59.7046Z" fill="white"/>
<path d="M77.5931 31.9061C77.5931 33.8645 77.0639 35.4125 76.0055 36.5489C75.0575 37.5605 73.8803 38.0657 72.4751 38.0657C70.9583 38.0657 69.8687 37.5209 69.2051 36.4313H69.1571V42.4973H66.5987V30.0809C66.5987 28.8497 66.5663 27.5861 66.5039 26.2901H68.7539L68.8967 28.1153H68.9447C69.7979 26.7401 71.0927 26.0537 72.8303 26.0537C74.1887 26.0537 75.3227 26.5901 76.2299 27.6641C77.1395 28.7393 77.5931 30.1529 77.5931 31.9061ZM74.9867 31.9997C74.9867 30.8789 74.7347 29.9549 74.2283 29.2277C73.6751 28.4693 72.9323 28.0901 72.0011 28.0901C71.3699 28.0901 70.7963 28.3013 70.2839 28.7177C69.7703 29.1377 69.4343 29.6861 69.2771 30.3653C69.1979 30.6821 69.1583 30.9413 69.1583 31.1453V33.0653C69.1583 33.9029 69.4151 34.6097 69.9287 35.1869C70.4423 35.7641 71.1095 36.0521 71.9303 36.0521C72.8939 36.0521 73.6439 35.6801 74.1803 34.9385C74.7179 34.1957 74.9867 33.2165 74.9867 31.9997Z" fill="white"/>
<path d="M90.838 31.9061C90.838 33.8645 90.3088 35.4125 89.2492 36.5489C88.3024 37.5605 87.1252 38.0657 85.72 38.0657C84.2032 38.0657 83.1136 37.5209 82.4512 36.4313H82.4032V42.4973H79.8448V30.0809C79.8448 28.8497 79.8124 27.5861 79.75 26.2901H82L82.1428 28.1153H82.1908C83.0428 26.7401 84.3376 26.0537 86.0764 26.0537C87.4336 26.0537 88.5676 26.5901 89.4772 27.6641C90.3832 28.7393 90.838 30.1529 90.838 31.9061ZM88.2316 31.9997C88.2316 30.8789 87.9784 29.9549 87.472 29.2277C86.9188 28.4693 86.1784 28.0901 85.246 28.0901C84.6136 28.0901 84.0412 28.3013 83.5276 28.7177C83.014 29.1377 82.6792 29.6861 82.522 30.3653C82.444 30.6821 82.4032 30.9413 82.4032 31.1453V33.0653C82.4032 33.9029 82.66 34.6097 83.1712 35.1869C83.6848 35.7629 84.352 36.0521 85.1752 36.0521C86.1388 36.0521 86.8888 35.6801 87.4252 34.9385C87.9628 34.1957 88.2316 33.2165 88.2316 31.9997Z" fill="white"/>
<path d="M105.645 33.3268C105.645 34.6852 105.174 35.7904 104.227 36.6436C103.187 37.576 101.738 38.0416 99.8771 38.0416C98.1587 38.0416 96.7811 37.7104 95.7383 37.0468L96.3311 34.9144C97.4543 35.5936 98.6867 35.9344 100.029 35.9344C100.993 35.9344 101.743 35.716 102.282 35.2816C102.818 34.8472 103.086 34.264 103.086 33.5368C103.086 32.8888 102.865 32.3428 102.422 31.9C101.982 31.4572 101.246 31.0456 100.219 30.6652C97.4231 29.6224 96.0263 28.0948 96.0263 26.086C96.0263 24.7732 96.5159 23.6968 97.4963 22.8592C98.4731 22.0204 99.7763 21.6016 101.406 21.6016C102.859 21.6016 104.066 21.8548 105.03 22.36L104.39 24.4456C103.49 23.956 102.473 23.7112 101.334 23.7112C100.434 23.7112 99.7307 23.9332 99.2267 24.3748C98.8007 24.7696 98.5871 25.2508 98.5871 25.8208C98.5871 26.452 98.8307 26.974 99.3203 27.3844C99.7463 27.7636 100.52 28.174 101.643 28.6168C103.017 29.17 104.027 29.8168 104.676 30.5584C105.323 31.2976 105.645 32.2228 105.645 33.3268Z" fill="white"/>
<path d="M114.103 28.2101H111.283V33.8009C111.283 35.2229 111.779 35.9333 112.775 35.9333C113.233 35.9333 113.612 35.8937 113.912 35.8145L113.983 37.7573C113.479 37.9457 112.815 38.0405 111.993 38.0405C110.983 38.0405 110.193 37.7321 109.623 37.1165C109.055 36.4997 108.77 35.4653 108.77 34.0121V28.2077H107.09V26.2877H108.77V24.1793L111.283 23.4209V26.2877H114.103V28.2101Z" fill="white"/>
<path d="M126.83 31.9527C126.83 33.7227 126.323 35.1759 125.313 36.3123C124.253 37.4823 122.847 38.0655 121.094 38.0655C119.404 38.0655 118.059 37.5051 117.056 36.3843C116.052 35.2635 115.551 33.8487 115.551 32.1435C115.551 30.3591 116.067 28.8975 117.102 27.7611C118.136 26.6235 119.53 26.0547 121.283 26.0547C122.973 26.0547 124.332 26.6151 125.358 27.7371C126.34 28.8255 126.83 30.2307 126.83 31.9527ZM124.175 32.0355C124.175 30.9735 123.948 30.0627 123.489 29.3031C122.952 28.3839 122.186 27.9255 121.192 27.9255C120.164 27.9255 119.382 28.3851 118.846 29.3031C118.386 30.0639 118.16 30.9891 118.16 32.0835C118.16 33.1455 118.386 34.0563 118.846 34.8147C119.399 35.7339 120.172 36.1923 121.169 36.1923C122.146 36.1923 122.913 35.7243 123.466 34.7907C123.938 34.0167 124.175 33.0963 124.175 32.0355Z" fill="white"/>
<path d="M135.145 28.5401C134.892 28.4933 134.622 28.4693 134.339 28.4693C133.439 28.4693 132.743 28.8089 132.253 29.4893C131.827 30.0893 131.614 30.8477 131.614 31.7633V37.8053H129.056L129.08 29.9165C129.08 28.5893 129.048 27.3809 128.984 26.2913H131.213L131.306 28.4945H131.377C131.647 27.7373 132.073 27.1277 132.656 26.6705C133.226 26.2589 133.842 26.0537 134.506 26.0537C134.742 26.0537 134.956 26.0705 135.145 26.1005V28.5401Z" fill="white"/>
<path d="M146.585 31.503C146.585 31.9614 146.555 32.3478 146.492 32.6634H138.816C138.846 33.801 139.217 34.671 139.93 35.271C140.577 35.8074 141.413 36.0762 142.44 36.0762C143.577 36.0762 144.614 35.895 145.546 35.5314L145.947 37.3074C144.857 37.7826 143.571 38.019 142.086 38.019C140.301 38.019 138.899 37.4934 137.879 36.4434C136.862 35.3934 136.352 33.9834 136.352 32.2146C136.352 30.4782 136.826 29.0322 137.775 27.879C138.768 26.6478 140.111 26.0322 141.801 26.0322C143.46 26.0322 144.717 26.6478 145.57 27.879C146.246 28.857 146.585 30.0666 146.585 31.503ZM144.146 30.8394C144.162 30.081 143.996 29.4258 143.649 28.8726C143.206 28.161 142.526 27.8058 141.61 27.8058C140.774 27.8058 140.093 28.1526 139.574 28.8486C139.148 29.4018 138.894 30.0654 138.816 30.8382L144.146 30.8394Z" fill="white"/>
<path d="M58.859 12.0104C58.859 13.4228 58.4354 14.486 57.5894 15.2C56.8058 15.8588 55.6922 16.1888 54.2498 16.1888C53.5346 16.1888 52.9226 16.1576 52.4102 16.0952V8.37804C53.0786 8.27004 53.7986 8.21484 54.5762 8.21484C55.9502 8.21484 56.9858 8.51364 57.6842 9.11124C58.4666 9.78684 58.859 10.7528 58.859 12.0104ZM57.533 12.0452C57.533 11.1296 57.2906 10.4276 56.8058 9.93804C56.321 9.44964 55.613 9.20484 54.6806 9.20484C54.2846 9.20484 53.9474 9.23124 53.6678 9.28644V15.1532C53.8226 15.1772 54.1058 15.188 54.5174 15.188C55.4798 15.188 56.2226 14.9204 56.7458 14.3852C57.269 13.85 57.533 13.07 57.533 12.0452Z" fill="white"/>
<path d="M65.8881 13.2445C65.8881 14.1145 65.6397 14.8273 65.1429 15.3865C64.6221 15.9613 63.9321 16.2481 63.0705 16.2481C62.2401 16.2481 61.5789 15.9733 61.0857 15.4213C60.5937 14.8705 60.3477 14.1757 60.3477 13.3381C60.3477 12.4621 60.6009 11.7433 61.1097 11.1853C61.6185 10.6273 62.3025 10.3477 63.1641 10.3477C63.9945 10.3477 64.6617 10.6225 65.1669 11.1733C65.6469 11.7085 65.8881 12.3997 65.8881 13.2445ZM64.5837 13.2853C64.5837 12.7633 64.4709 12.3157 64.2465 11.9425C63.9825 11.4913 63.6069 11.2657 63.1185 11.2657C62.6133 11.2657 62.2293 11.4913 61.9653 11.9425C61.7397 12.3157 61.6281 12.7705 61.6281 13.3081C61.6281 13.8301 61.7409 14.2777 61.9653 14.6509C62.2377 15.1021 62.6169 15.3277 63.1065 15.3277C63.5865 15.3277 63.9633 15.0985 64.2345 14.6389C64.4673 14.2585 64.5837 13.8073 64.5837 13.2853Z" fill="white"/>
<path d="M75.3171 10.4629L73.5471 16.1197H72.3951L71.6619 13.6633C71.4759 13.0501 71.3247 12.4405 71.2071 11.8357H71.1843C71.0751 12.4573 70.9239 13.0657 70.7295 13.6633L69.9507 16.1197H68.7855L67.1211 10.4629H68.4135L69.0531 13.1521C69.2079 13.7881 69.3351 14.3941 69.4371 14.9677H69.4599C69.5535 14.4949 69.7083 13.8925 69.9267 13.1641L70.7295 10.4641H71.7543L72.5235 13.1065C72.7095 13.7509 72.8607 14.3713 72.9771 14.9689H73.0119C73.0971 14.3869 73.2255 13.7665 73.3959 13.1065L74.0823 10.4641H75.3171V10.4629Z" fill="white"/>
<path d="M81.8373 16.1193H80.5797V12.8793C80.5797 11.8809 80.2005 11.3817 79.4397 11.3817C79.0665 11.3817 78.7653 11.5186 78.5313 11.7934C78.2997 12.0682 78.1821 12.3921 78.1821 12.7629V16.1181H76.9245V12.079C76.9245 11.5821 76.9089 11.0434 76.8789 10.4602H77.9841L78.0429 11.3446H78.0777C78.2241 11.0698 78.4425 10.843 78.7293 10.6618C79.0701 10.4506 79.4517 10.3438 79.8693 10.3438C80.3973 10.3438 80.8365 10.5142 81.1857 10.8562C81.6201 11.275 81.8373 11.9002 81.8373 12.7306V16.1193Z" fill="white"/>
<path d="M85.3033 16.1196H84.0469V7.86719H85.3033V16.1196Z" fill="white"/>
<path d="M92.7084 13.2445C92.7084 14.1145 92.46 14.8273 91.9632 15.3865C91.4424 15.9613 90.7512 16.2481 89.8908 16.2481C89.0592 16.2481 88.398 15.9733 87.906 15.4213C87.414 14.8705 87.168 14.1757 87.168 13.3381C87.168 12.4621 87.4212 11.7433 87.93 11.1853C88.4388 10.6273 89.1228 10.3477 89.9832 10.3477C90.8148 10.3477 91.4808 10.6225 91.9872 11.1733C92.4672 11.7085 92.7084 12.3997 92.7084 13.2445ZM91.4028 13.2853C91.4028 12.7633 91.29 12.3157 91.0656 11.9425C90.8028 11.4913 90.426 11.2657 89.9388 11.2657C89.4324 11.2657 89.0484 11.4913 88.7856 11.9425C88.56 12.3157 88.4484 12.7705 88.4484 13.3081C88.4484 13.8301 88.5612 14.2777 88.7856 14.6509C89.058 15.1021 89.4372 15.3277 89.9268 15.3277C90.4068 15.3277 90.7824 15.0985 91.0536 14.6389C91.2876 14.2585 91.4028 13.8073 91.4028 13.2853Z" fill="white"/>
<path d="M98.7963 16.1197H97.6671L97.5735 15.4681H97.5387C97.1523 15.9877 96.6015 16.2481 95.8863 16.2481C95.3523 16.2481 94.9203 16.0765 94.5951 15.7357C94.2999 15.4261 94.1523 15.0409 94.1523 14.5837C94.1523 13.8925 94.4403 13.3657 95.0199 13.0009C95.5983 12.6361 96.4119 12.4573 97.4595 12.4657V12.3601C97.4595 11.6149 97.0683 11.2429 96.2847 11.2429C95.7267 11.2429 95.2347 11.3833 94.8099 11.6617L94.5543 10.8361C95.0799 10.5109 95.7291 10.3477 96.4947 10.3477C97.9731 10.3477 98.7147 11.1277 98.7147 12.6877V14.7709C98.7147 15.3361 98.7423 15.7861 98.7963 16.1197ZM97.4907 14.1757V13.3033C96.1035 13.2793 95.4099 13.6597 95.4099 14.4433C95.4099 14.7385 95.4891 14.9593 95.6511 15.1069C95.8131 15.2545 96.0195 15.3277 96.2655 15.3277C96.5415 15.3277 96.7995 15.2401 97.0347 15.0661C97.2711 14.8909 97.4163 14.6689 97.4703 14.3965C97.4835 14.3353 97.4907 14.2609 97.4907 14.1757Z" fill="white"/>
<path d="M105.939 16.1196H104.823L104.764 15.2112H104.729C104.373 15.9024 103.766 16.248 102.913 16.248C102.231 16.248 101.663 15.9804 101.213 15.4452C100.763 14.91 100.539 14.2152 100.539 13.362C100.539 12.4464 100.783 11.7048 101.272 11.1384C101.746 10.6104 102.327 10.3464 103.018 10.3464C103.778 10.3464 104.309 10.602 104.612 11.1144H104.636V7.86719H105.895V14.5956C105.895 15.1464 105.909 15.654 105.939 16.1196ZM104.636 13.734V12.7908C104.636 12.6276 104.624 12.4956 104.601 12.3948C104.53 12.0924 104.378 11.838 104.146 11.6328C103.912 11.4276 103.63 11.3244 103.305 11.3244C102.836 11.3244 102.469 11.5104 102.199 11.8836C101.931 12.2568 101.795 12.7332 101.795 13.3152C101.795 13.8744 101.924 14.328 102.182 14.6772C102.454 15.0492 102.821 15.2352 103.281 15.2352C103.694 15.2352 104.024 15.0804 104.275 14.7696C104.517 14.4828 104.636 14.1372 104.636 13.734Z" fill="white"/>
<path d="M116.697 13.2445C116.697 14.1145 116.448 14.8273 115.951 15.3865C115.431 15.9613 114.742 16.2481 113.879 16.2481C113.05 16.2481 112.389 15.9733 111.894 15.4213C111.402 14.8705 111.156 14.1757 111.156 13.3381C111.156 12.4621 111.409 11.7433 111.918 11.1853C112.427 10.6273 113.111 10.3477 113.974 10.3477C114.803 10.3477 115.471 10.6225 115.975 11.1733C116.455 11.7085 116.697 12.3997 116.697 13.2445ZM115.393 13.2853C115.393 12.7633 115.281 12.3157 115.056 11.9425C114.791 11.4913 114.417 11.2657 113.927 11.2657C113.423 11.2657 113.039 11.4913 112.774 11.9425C112.548 12.3157 112.437 12.7705 112.437 13.3081C112.437 13.8301 112.549 14.2777 112.774 14.6509C113.046 15.1021 113.425 15.3277 113.915 15.3277C114.395 15.3277 114.773 15.0985 115.044 14.6389C115.276 14.2585 115.393 13.8073 115.393 13.2853Z" fill="white"/>
<path d="M123.457 16.1193H122.201V12.8793C122.201 11.8809 121.822 11.3817 121.06 11.3817C120.686 11.3817 120.385 11.5186 120.152 11.7934C119.92 12.0682 119.803 12.3921 119.803 12.7629V16.1181H118.544V12.079C118.544 11.5821 118.53 11.0434 118.5 10.4602H119.604L119.663 11.3446H119.698C119.845 11.0698 120.064 10.843 120.349 10.6618C120.691 10.4506 121.072 10.3438 121.49 10.3438C122.017 10.3438 122.456 10.5142 122.806 10.8562C123.241 11.275 123.457 11.9002 123.457 12.7306V16.1193Z" fill="white"/>
<path d="M131.922 11.4045H130.537V14.1525C130.537 14.8509 130.783 15.2001 131.27 15.2001C131.496 15.2001 131.683 15.1809 131.831 15.1413L131.863 16.0953C131.615 16.1889 131.288 16.2357 130.886 16.2357C130.389 16.2357 130.003 16.0845 129.723 15.7821C129.443 15.4797 129.303 14.9709 129.303 14.2569V11.4045H128.477V10.4625H129.303V9.42571L130.536 9.05371V10.4613H131.921L131.922 11.4045Z" fill="white"/>
<path d="M138.581 16.1196H137.322V12.9036C137.322 11.8896 136.943 11.382 136.183 11.382C135.6 11.382 135.202 11.676 134.983 12.264C134.946 12.3876 134.924 12.5388 134.924 12.7164V16.1184H133.668V7.86719H134.924V11.2764H134.948C135.344 10.656 135.912 10.3464 136.648 10.3464C137.168 10.3464 137.599 10.5168 137.941 10.8588C138.367 11.2848 138.581 11.9184 138.581 12.756V16.1196Z" fill="white"/>
<path d="M145.447 13.0237C145.447 13.2493 145.43 13.4389 145.4 13.5937H141.629C141.646 14.1529 141.826 14.5789 142.175 14.8741C142.494 15.1381 142.906 15.2701 143.41 15.2701C143.968 15.2701 144.476 15.1813 144.935 15.0025L145.132 15.8761C144.595 16.1089 143.964 16.2253 143.233 16.2253C142.357 16.2253 141.667 15.9673 141.168 15.4513C140.666 14.9353 140.418 14.2429 140.418 13.3741C140.418 12.5209 140.65 11.8105 141.116 11.2441C141.604 10.6393 142.262 10.3369 143.094 10.3369C143.908 10.3369 144.526 10.6393 144.943 11.2441C145.28 11.7241 145.447 12.3181 145.447 13.0237ZM144.247 12.6985C144.257 12.3253 144.174 12.0037 144.004 11.7325C143.785 11.3833 143.453 11.2081 143.003 11.2081C142.592 11.2081 142.258 11.3785 142.002 11.7205C141.793 11.9929 141.67 12.3181 141.629 12.6985H144.247Z" fill="white"/>
</g>
</g>
<defs>
<clipPath id="clip0_929_269">
<rect width="162" height="48" fill="white"/>
</clipPath>
<clipPath id="clip1_929_269">
<rect width="162" height="48" fill="white"/>
</clipPath>
</defs>
</svg>
