<svg width="15" height="15" viewBox="0 0 15 15" fill="none" xmlns="http://www.w3.org/2000/svg">
<path d="M12.4715 11.0667C12.4715 11.2899 12.3934 11.4796 12.2372 11.6359L11.0988 12.7743C10.9425 12.9305 10.7528 13.0086 10.5296 13.0086C10.3064 13.0086 10.1166 12.9305 9.96038 12.7743L7.49944 10.3133L5.0385 12.7743C4.88225 12.9305 4.69252 13.0086 4.46931 13.0086C4.24609 13.0086 4.05636 12.9305 3.90011 12.7743L2.76172 11.6359C2.60547 11.4796 2.52734 11.2899 2.52734 11.0667C2.52734 10.8435 2.60547 10.6537 2.76172 10.4975L5.22266 8.03655L2.76172 5.57561C2.60547 5.41936 2.52734 5.22963 2.52734 5.00642C2.52734 4.7832 2.60547 4.59347 2.76172 4.43722L3.90011 3.29883C4.05636 3.14258 4.24609 3.06445 4.46931 3.06445C4.69252 3.06445 4.88225 3.14258 5.0385 3.29883L7.49944 5.75977L9.96038 3.29883C10.1166 3.14258 10.3064 3.06445 10.5296 3.06445C10.7528 3.06445 10.9425 3.14258 11.0988 3.29883L12.2372 4.43722C12.3934 4.59347 12.4715 4.7832 12.4715 5.00642C12.4715 5.22963 12.3934 5.41936 12.2372 5.57561L9.77623 8.03655L12.2372 10.4975C12.3934 10.6537 12.4715 10.8435 12.4715 11.0667Z" fill="#BFC9E0"/>
</svg>
