<svg width="48" height="48" viewBox="0 0 48 48" fill="none" xmlns="http://www.w3.org/2000/svg">
<rect width="48" height="48" rx="8" fill="#FFFAF1"/>
<path d="M33.6732 30.5536C33.0303 29.9805 32.4675 29.3235 31.9999 28.6003C31.4894 27.602 31.1834 26.5117 31.0999 25.3936V22.1003C31.1043 20.344 30.4672 18.6466 29.3084 17.3269C28.1495 16.0072 26.5486 15.1562 24.8065 14.9336V14.0736C24.8065 13.8376 24.7128 13.6112 24.5459 13.4443C24.379 13.2774 24.1526 13.1836 23.9165 13.1836C23.6805 13.1836 23.4541 13.2774 23.2872 13.4443C23.1203 13.6112 23.0265 13.8376 23.0265 14.0736V14.9469C21.3 15.1855 19.7185 16.0418 18.5749 17.357C17.4313 18.6722 16.803 20.3574 16.8065 22.1003V25.3936C16.723 26.5117 16.4171 27.602 15.9065 28.6003C15.4471 29.3218 14.8933 29.9788 14.2599 30.5536C14.1888 30.6161 14.1318 30.693 14.0927 30.7792C14.0536 30.8654 14.0333 30.9589 14.0332 31.0536V31.9603C14.0332 32.1371 14.1034 32.3066 14.2285 32.4317C14.3535 32.5567 14.5231 32.6269 14.6999 32.6269H33.2332C33.41 32.6269 33.5796 32.5567 33.7046 32.4317C33.8296 32.3066 33.8999 32.1371 33.8999 31.9603V31.0536C33.8997 30.9589 33.8795 30.8654 33.8404 30.7792C33.8013 30.693 33.7443 30.6161 33.6732 30.5536ZM15.4199 31.2936C16.0401 30.6944 16.5863 30.0229 17.0465 29.2936C17.6896 28.0879 18.0648 26.7576 18.1465 25.3936V22.1003C18.1201 21.319 18.2512 20.5403 18.5319 19.8107C18.8126 19.0811 19.2373 18.4155 19.7807 17.8534C20.3241 17.2913 20.975 16.8444 21.6947 16.5391C22.4144 16.2338 23.1881 16.0765 23.9699 16.0765C24.7516 16.0765 25.5254 16.2338 26.2451 16.5391C26.9648 16.8444 27.6157 17.2913 28.159 17.8534C28.7024 18.4155 29.1271 19.0811 29.4078 19.8107C29.6886 20.5403 29.8196 21.319 29.7932 22.1003V25.3936C29.8749 26.7576 30.2501 28.0879 30.8932 29.2936C31.3535 30.0229 31.8996 30.6944 32.5199 31.2936H15.4199Z" fill="#FFA412"/>
<path d="M23.9996 34.854C24.4195 34.8443 24.8225 34.6864 25.1373 34.4083C25.4521 34.1301 25.6583 33.7496 25.7196 33.334H22.2129C22.2759 33.7609 22.4918 34.1503 22.8204 34.4299C23.1491 34.7095 23.5681 34.8602 23.9996 34.854Z" fill="#FFA412"/>
</svg>
