<svg width="34" height="34" viewBox="0 0 34 34" fill="none" xmlns="http://www.w3.org/2000/svg">
<path d="M14.149 30.8731C14.3526 30.887 14.5439 30.9902 14.6838 31.1618C14.8237 31.3333 14.9016 31.5601 14.9016 31.7958C14.9016 32.0316 14.8237 32.2584 14.6838 32.4299C14.5439 32.6014 14.3526 32.7047 14.149 32.7185C11.6822 32.7178 9.25849 31.9718 7.11804 30.5545C4.97758 29.1372 3.19477 27.0979 1.94635 24.6387C0.697926 22.1794 0.0272504 19.3858 0.000813042 16.5346C-0.0256243 13.6834 0.593095 10.8738 1.79563 8.38421C2.99817 5.89463 4.74275 3.8116 6.85644 2.34161C8.97012 0.871621 11.3795 0.0657382 13.8457 0.00385424C16.3119 -0.0580297 18.7492 0.626235 20.9161 1.98881C23.083 3.35138 24.9041 5.34495 26.199 7.77185L26.3678 6.81237C26.3784 6.69101 26.4107 6.57352 26.4626 6.46732C26.5146 6.36111 26.585 6.2685 26.6694 6.19532C26.7538 6.12214 26.8504 6.06998 26.9532 6.04213C27.0559 6.01429 27.1626 6.01136 27.2663 6.03353C27.3701 6.0557 27.4688 6.10249 27.5561 6.17095C27.6435 6.23941 27.7176 6.32806 27.7738 6.43129C27.83 6.53452 27.8671 6.6501 27.8828 6.77074C27.8984 6.89138 27.8922 7.01445 27.8647 7.1322L27.3113 10.2825C27.2891 10.3954 27.2478 10.5021 27.1899 10.5965C27.132 10.6909 27.0585 10.7711 26.9736 10.8326C26.8888 10.8941 26.7943 10.9357 26.6956 10.9549C26.5968 10.9741 26.4958 10.9706 26.3982 10.9446L23.7309 10.2345C23.5398 10.1767 23.3757 10.0352 23.2733 9.83996C23.1708 9.64477 23.138 9.41117 23.1819 9.18855C23.2257 8.96593 23.3427 8.77174 23.5082 8.64703C23.6736 8.52231 23.8745 8.47685 24.0684 8.52026L24.8321 8.72495C23.6819 6.57136 22.0646 4.8027 20.1406 3.59435C18.2167 2.386 16.0529 1.77992 13.8639 1.83622C11.6748 1.89251 9.5365 2.60921 7.66096 3.91527C5.78541 5.22132 4.23778 7.07136 3.17151 9.28195C2.10524 11.4925 1.55737 13.9869 1.58222 16.5177C1.60707 19.0485 2.20379 21.5278 3.31319 23.7099C4.4226 25.8919 6.00616 27.7009 7.90687 28.9574C9.80758 30.2139 11.9594 30.8743 14.149 30.8731ZM19.6137 15.7932C19.6874 15.8609 19.747 15.9469 19.788 16.0449C19.8289 16.143 19.8502 16.2504 19.8502 16.3593C19.8502 16.4681 19.8289 16.5756 19.788 16.6736C19.747 16.7716 19.6874 16.8577 19.6137 16.9254L18.2579 18.1343C18.1504 18.2299 18.0187 18.2816 17.8831 18.2815C17.7476 18.2815 17.6158 18.2296 17.5085 18.1339C17.4011 18.0383 17.3241 17.9043 17.2895 17.7528C17.2549 17.6013 17.2646 17.4408 17.3171 17.2964H15.5463C15.4245 17.5398 15.2566 17.7483 15.0553 17.9063C14.854 18.0643 14.6244 18.1677 14.3837 18.2088C14.143 18.2499 13.8974 18.2276 13.6651 18.1436C13.4329 18.0596 13.2201 17.9161 13.0426 17.7237C12.865 17.5314 12.7274 17.2952 12.6399 17.0328C12.5524 16.7703 12.5173 16.4884 12.5372 16.2081C12.5571 15.9278 12.6315 15.6563 12.7549 15.4139C12.8783 15.1715 13.0475 14.9644 13.2498 14.8081L13.2774 11.4915C13.1518 11.558 13.0103 11.5734 12.8761 11.5351C12.7419 11.4968 12.6229 11.4071 12.5384 11.2806C12.454 11.1541 12.4092 10.9982 12.4112 10.8384C12.4133 10.6787 12.4621 10.5244 12.5497 10.4009L13.6261 8.85927C13.6814 8.78017 13.7508 8.71579 13.8296 8.67053C13.9084 8.62526 13.9947 8.60019 14.0826 8.59701C14.1811 8.59455 14.2786 8.61975 14.3668 8.67045C14.455 8.72114 14.5312 8.79581 14.589 8.88806L15.6072 10.4872C15.6853 10.611 15.7266 10.7607 15.725 10.9139C15.7234 11.0671 15.679 11.2157 15.5984 11.3373C15.5177 11.4589 15.4052 11.5471 15.2777 11.5887C15.1501 11.6304 15.0143 11.6232 14.8905 11.5682L14.8712 14.6994C15.1508 14.8623 15.3834 15.1156 15.5408 15.4286H17.3116C17.2546 15.2829 17.2418 15.1193 17.2753 14.9642C17.3087 14.8091 17.3865 14.6716 17.4959 14.5739C17.6054 14.4762 17.7402 14.4241 17.8785 14.426C18.0167 14.4279 18.1504 14.4836 18.2579 14.5842L19.6137 15.7932ZM22.8067 24.7228L24.2179 29.0053L24.929 26.6706L24.5803 26.226C24.3202 25.7846 24.4088 25.2665 24.893 25.193C25.068 25.1768 25.2437 25.1768 25.4187 25.193C25.6117 25.1789 25.8055 25.1875 25.997 25.2185C26.4452 25.3337 26.4923 25.8358 26.2737 26.2388L25.9251 26.677L26.6362 29.0117L27.9117 24.7292C28.8331 25.6887 31.3123 25.8806 32.3388 26.533C33.7444 27.4446 33.7057 28.8998 33.9989 30.5277C31.1961 33.758 19.6414 33.9019 16.7167 30.5213C17.0238 28.9222 16.9934 27.4222 18.3935 26.5267C19.6386 25.7239 21.7857 25.7846 22.8206 24.7228H22.8067ZM22.5466 21.8443C22.4258 21.8514 22.3057 21.8181 22.2008 21.7484C22.0515 21.6435 21.9359 21.4852 21.8715 21.2974C21.7193 20.904 21.5948 19.8678 21.9822 19.5704L21.9102 19.516V19.4009C21.9102 19.193 21.8909 18.9403 21.8881 18.6748C21.8881 17.7154 21.8577 16.5192 21.1604 16.2825L20.8616 16.1802L21.058 15.9083C21.5744 15.1725 22.1589 14.5043 22.8012 13.9158C23.3829 13.3565 24.0779 12.9768 24.8211 12.8124C25.1661 12.7506 25.5186 12.7739 25.8552 12.8808C26.1919 12.9878 26.5052 13.1759 26.7745 13.4328C26.9668 13.611 27.1438 13.8103 27.303 14.0277C27.6129 14.0645 27.9128 14.1757 28.1834 14.3541C28.454 14.5326 28.6894 14.7743 28.8746 15.064C29.1057 15.4107 29.2784 15.8045 29.3837 16.2249C29.4961 16.6515 29.5429 17.0974 29.5221 17.5426C29.4997 18.3501 29.2071 19.1161 28.7058 19.6791C28.7943 19.6815 28.8813 19.7066 28.9604 19.7527C29.0812 19.8439 29.1701 19.9817 29.2111 20.1417C29.2522 20.3016 29.2427 20.4732 29.1845 20.6258C29.1098 20.8913 29.0129 21.2015 28.9216 21.4606C28.8137 21.8092 28.6449 21.8763 28.3406 21.838C27.6433 25.3561 23.4293 25.484 22.5466 21.838V21.8443ZM8.3523 6.32303C8.30256 6.23336 8.26909 6.13295 8.25391 6.02789C8.23874 5.92283 8.24218 5.8153 8.26403 5.71182C8.28588 5.60834 8.32567 5.51106 8.38101 5.42589C8.43634 5.34072 8.50606 5.26942 8.58595 5.21631C8.66583 5.16321 8.7542 5.12941 8.84572 5.11696C8.93724 5.10451 9.02999 5.11367 9.11836 5.14388C9.20673 5.17409 9.28886 5.22473 9.35979 5.29273C9.43073 5.36072 9.48897 5.44466 9.53101 5.53945L10.0374 6.5565C10.1291 6.73845 10.1545 6.95507 10.1081 7.1587C10.0616 7.36233 9.94713 7.53629 9.78972 7.64232C9.63231 7.74835 9.44491 7.77776 9.26874 7.72408C9.09258 7.6704 8.94208 7.53802 8.85035 7.35608L8.3523 6.32303ZM4.78573 11.0213C4.63921 10.9109 4.53491 10.7397 4.49431 10.543C4.45372 10.3463 4.47991 10.1391 4.5675 9.96408C4.65509 9.78906 4.79741 9.65952 4.96515 9.60214C5.13288 9.54476 5.31327 9.56391 5.46916 9.65565L6.36011 10.2345C6.43914 10.2852 6.50865 10.3536 6.56458 10.4356C6.62052 10.5177 6.66175 10.6118 6.68589 10.7124C6.71002 10.8131 6.71657 10.9183 6.70516 11.022C6.69374 11.1256 6.66458 11.2255 6.61939 11.316C6.57419 11.4065 6.51387 11.4856 6.44193 11.5489C6.36999 11.6121 6.28788 11.6581 6.20038 11.6843C6.11289 11.7104 6.02176 11.7162 5.93232 11.7012C5.84288 11.6862 5.75692 11.6508 5.67945 11.597L4.7968 11.0117L4.78573 11.0213ZM3.73153 17.1461C3.55101 17.1461 3.37788 17.0632 3.25023 16.9156C3.12258 16.7681 3.05087 16.5679 3.05087 16.3593C3.05087 16.1506 3.12258 15.9505 3.25023 15.8029C3.37788 15.6554 3.55101 15.5725 3.73153 15.5725H4.74976C4.93028 15.5725 5.10341 15.6554 5.23106 15.8029C5.35871 15.9505 5.43042 16.1506 5.43042 16.3593C5.43042 16.5679 5.35871 16.7681 5.23106 16.9156C5.10341 17.0632 4.93028 17.1461 4.74976 17.1461H3.73153ZM5.46639 23.0597C5.3108 23.1519 5.13049 23.1713 4.96283 23.114C4.79517 23.0567 4.65303 22.927 4.56586 22.7518C4.47869 22.5766 4.45319 22.3694 4.49464 22.173C4.53609 21.9767 4.64131 21.8063 4.7885 21.6972L5.66838 21.1087C5.74578 21.0562 5.83136 21.0219 5.92024 21.0076C6.00913 20.9933 6.09958 20.9994 6.18642 21.0256C6.27326 21.0517 6.3548 21.0974 6.42638 21.1599C6.49796 21.2225 6.55818 21.3007 6.6036 21.3902C6.64902 21.4797 6.67875 21.5786 6.6911 21.6813C6.70344 21.7841 6.69816 21.8886 6.67555 21.989C6.65294 22.0894 6.61344 22.1836 6.55932 22.2664C6.5052 22.3491 6.43751 22.4187 6.36011 22.4712L5.46639 23.0597ZM18.767 5.53625C18.8576 5.35557 19.0067 5.22391 19.1813 5.17023C19.3559 5.11655 19.5418 5.14524 19.6981 5.25C19.8544 5.35476 19.9683 5.527 20.0147 5.72883C20.0612 5.93066 20.0364 6.14555 19.9457 6.32623L19.4366 7.35608C19.3912 7.44554 19.331 7.52378 19.2594 7.58634C19.1878 7.6489 19.1063 7.69455 19.0194 7.72069C18.9326 7.74682 18.8421 7.75293 18.7533 7.73866C18.6644 7.72439 18.5788 7.69003 18.5014 7.63753C18.424 7.58503 18.3563 7.51542 18.3022 7.43268C18.2481 7.34994 18.2086 7.25569 18.186 7.1553C18.1633 7.05492 18.1581 6.95038 18.1704 6.84763C18.1827 6.74489 18.2125 6.64596 18.2579 6.5565L18.767 5.53625ZM9.53101 27.1855C9.44075 27.3666 9.29195 27.4988 9.11734 27.5531C8.94273 27.6074 8.75661 27.5793 8.59994 27.4749C8.44326 27.3706 8.32887 27.1986 8.2819 26.9968C8.23494 26.7949 8.25927 26.5798 8.34953 26.3987L8.85035 25.3721C8.89522 25.2826 8.9549 25.2042 9.02598 25.1414C9.09705 25.0786 9.17814 25.0326 9.26459 25.006C9.35105 24.9795 9.44119 24.9728 9.52987 24.9865C9.61855 25.0002 9.70402 25.0339 9.78142 25.0858C9.85881 25.1377 9.92661 25.2067 9.98094 25.2888C10.0353 25.371 10.0751 25.4647 10.0981 25.5646C10.1211 25.6646 10.1268 25.7688 10.115 25.8713C10.1031 25.9738 10.0739 26.0726 10.0291 26.162L9.53101 27.1855ZM13.4683 4.3177C13.4794 4.11812 13.5557 3.93088 13.6819 3.79404C13.8081 3.65721 13.9746 3.58105 14.1476 3.58105C14.3206 3.58105 14.4872 3.65721 14.6133 3.79404C14.7395 3.93088 14.8159 4.11812 14.8269 4.3177V5.49467C14.8328 5.602 14.8197 5.70959 14.7882 5.8108C14.7568 5.91201 14.7077 6.0047 14.644 6.08313C14.5804 6.16156 14.5035 6.22407 14.4181 6.26681C14.3327 6.30954 14.2407 6.33159 14.1476 6.33159C14.0546 6.33159 13.9625 6.30954 13.8772 6.26681C13.7918 6.22407 13.7149 6.16156 13.6512 6.08313C13.5876 6.0047 13.5385 5.91201 13.507 5.8108C13.4756 5.70959 13.4624 5.602 13.4683 5.49467V4.3177ZM14.8297 28.3977C14.8297 28.6063 14.758 28.8064 14.6303 28.954C14.5027 29.1015 14.3295 29.1844 14.149 29.1844C13.9685 29.1844 13.7954 29.1015 13.6677 28.954C13.5401 28.8064 13.4683 28.6063 13.4683 28.3977V27.2239C13.4683 27.0152 13.5401 26.8151 13.6677 26.6675C13.7954 26.52 13.9685 26.4371 14.149 26.4371C14.3295 26.4371 14.5027 26.52 14.6303 26.6675C14.758 26.8151 14.8297 27.0152 14.8297 27.2239V28.3977Z" fill="#737B7B"/>
</svg>
