<svg width="27" height="27" viewBox="0 0 27 27" fill="none" xmlns="http://www.w3.org/2000/svg">
<mask id="mask0_886_197" style="mask-type:luminance" maskUnits="userSpaceOnUse" x="-3" y="-3" width="33" height="33">
<rect x="-2.70119" y="-2.69921" width="32.3984" height="32.3984" fill="white"/>
</mask>
<g mask="url(#mask0_886_197)">
<path d="M11.1402 5.24467L11.516 10.8333L11.7026 13.6423C11.7046 13.9312 11.7498 14.2182 11.8372 14.494C12.0625 15.0293 12.6046 15.3695 13.1944 15.3458L22.1812 14.7579C22.5704 14.7515 22.9462 14.8971 23.2259 15.1626C23.459 15.3838 23.6095 15.6733 23.657 15.9846L23.673 16.1735C23.3011 21.3231 19.519 25.6184 14.38 26.7271C9.24104 27.8358 3.97131 25.4936 1.43189 20.9722C0.69979 19.6585 0.242513 18.2148 0.0869064 16.7254C0.0219071 16.2845 -0.00671156 15.8392 0.00132055 15.3937C-0.00671156 9.87277 3.92489 5.09972 9.42838 3.94905C10.0908 3.8459 10.7401 4.19656 11.0057 4.8008C11.0744 4.94073 11.1198 5.0906 11.1402 5.24467Z" fill="white"/>
<path opacity="0.4" d="M26.9968 10.5461L26.9873 10.5901L26.96 10.654L26.9638 10.8297C26.9498 11.0623 26.8599 11.2861 26.7052 11.467C26.5439 11.6553 26.3236 11.7836 26.081 11.8334L25.933 11.8536L15.5644 12.5255C15.2195 12.5595 14.8761 12.4483 14.6198 12.2196C14.4059 12.0289 14.2693 11.7716 14.2307 11.4943L13.5348 1.14077C13.5227 1.10577 13.5227 1.06782 13.5348 1.03281C13.5443 0.747417 13.6699 0.47766 13.8836 0.283796C14.0972 0.0899318 14.3812 -0.0118804 14.6719 0.00110594C20.8274 0.157712 26.0009 4.58409 26.9968 10.5461Z" fill="white"/>
</g>
</svg>
