<svg width="25" height="25" viewBox="0 0 25 25" fill="none" xmlns="http://www.w3.org/2000/svg">
<g clip-path="url(#clip0_886_206)">
<path d="M0 18.7496C0 19.4863 0.292658 20.1928 0.813592 20.7138C1.33453 21.2347 2.04107 21.5273 2.77778 21.5273H22.2222C22.9589 21.5273 23.6655 21.2347 24.1864 20.7138C24.7073 20.1928 25 19.4863 25 18.7496V15.2773H0V18.7496Z" fill="#138808"/>
<path d="M25 9.72266V6.25043C25 5.51372 24.7073 4.80718 24.1864 4.28625C23.6655 3.76531 22.9589 3.47266 22.2222 3.47266H2.77778C2.04107 3.47266 1.33453 3.76531 0.813592 4.28625C0.292658 4.80718 0 5.51372 0 6.25043L0 9.72266H25Z" fill="#FF9933"/>
<path d="M0 9.49023H25V15.509H0V9.49023Z" fill="#F7F7F7"/>
<path d="M12.5004 15.2782C14.0346 15.2782 15.2782 14.0346 15.2782 12.5004C15.2782 10.9663 14.0346 9.72266 12.5004 9.72266C10.9663 9.72266 9.72266 10.9663 9.72266 12.5004C9.72266 14.0346 10.9663 15.2782 12.5004 15.2782Z" fill="#000080"/>
<path d="M12.5 14.8438C13.7944 14.8438 14.8438 13.7944 14.8438 12.5C14.8438 11.2056 13.7944 10.1562 12.5 10.1562C11.2056 10.1562 10.1562 11.2056 10.1562 12.5C10.1562 13.7944 11.2056 14.8438 12.5 14.8438Z" fill="#F7F7F7"/>
<path d="M12.569 11.6315L12.4996 12.0829L12.4301 11.6315L12.4996 10.2773L12.569 11.6315ZM11.9246 10.353L12.2079 11.6787L12.3919 12.0968L12.3419 11.6433L11.9246 10.353ZM11.3885 10.5753L12.0051 11.7822L12.2912 12.1385L12.126 11.7128L11.3885 10.5753ZM10.928 10.928L11.8364 11.935L12.2051 12.2051L11.935 11.8364L10.928 10.928ZM10.5753 11.3885L11.7128 12.126L12.1385 12.2912L11.7822 12.0051L10.5753 11.3885ZM10.353 11.9246L11.6433 12.3419L12.0968 12.3919L11.6787 12.2079L10.353 11.9246ZM10.2773 12.4996L11.6315 12.569L12.0829 12.4996L11.6315 12.4301L10.2773 12.4996ZM10.353 13.0746L11.6787 12.7912L12.0968 12.6072L11.6433 12.6572L10.353 13.0746ZM10.5753 13.6107L11.7822 12.994L12.1385 12.7079L11.7128 12.8732L10.5753 13.6107ZM10.928 14.0711L11.935 13.1628L12.2051 12.794L11.8364 13.0641L10.928 14.0711ZM11.3885 14.4239L12.126 13.2864L12.2912 12.8607L12.0051 13.2169L11.3885 14.4239ZM11.9246 14.6461L12.3419 13.3558L12.3919 12.9023L12.2079 13.3204L11.9246 14.6461ZM12.4996 14.7218L12.569 13.3676L12.4996 12.9162L12.4301 13.3676L12.4996 14.7218ZM13.0746 14.6461L12.7912 13.3204L12.6072 12.9023L12.6572 13.3558L13.0746 14.6461ZM13.6107 14.4239L12.994 13.2169L12.7079 12.8607L12.8732 13.2864L13.6107 14.4239ZM14.0711 14.0711L13.1628 13.0641L12.794 12.794L13.0641 13.1628L14.0711 14.0711ZM14.4239 13.6107L13.2864 12.8732L12.8607 12.7079L13.2169 12.994L14.4239 13.6107ZM14.6461 13.0746L13.3558 12.6572L12.9023 12.6072L13.3204 12.7912L14.6461 13.0746ZM14.7218 12.4996L13.3676 12.4301L12.9162 12.4996L13.3676 12.569L14.7218 12.4996ZM14.6461 11.9246L13.3204 12.2079L12.9023 12.3919L13.3558 12.3419L14.6461 11.9246ZM14.4239 11.3885L13.2169 12.0051L12.8607 12.2912L13.2864 12.126L14.4239 11.3885ZM14.0711 10.928L13.0641 11.8364L12.794 12.2051L13.1628 11.935L14.0711 10.928ZM13.6107 10.5753L12.8732 11.7128L12.7079 12.1385L12.994 11.7822L13.6107 10.5753ZM13.0746 10.353L12.6572 11.6433L12.6072 12.0968L12.7912 11.6787L13.0746 10.353Z" fill="#6666B3"/>
<path d="M12.1936 10.3188C12.2703 10.3188 12.3325 10.2566 12.3325 10.1799C12.3325 10.1032 12.2703 10.041 12.1936 10.041C12.1169 10.041 12.0547 10.1032 12.0547 10.1799C12.0547 10.2566 12.1169 10.3188 12.1936 10.3188Z" fill="#000080"/>
<path d="M11.6037 10.477C11.6804 10.477 11.7426 10.4148 11.7426 10.3381C11.7426 10.2614 11.6804 10.1992 11.6037 10.1992C11.527 10.1992 11.4648 10.2614 11.4648 10.3381C11.4648 10.4148 11.527 10.477 11.6037 10.477Z" fill="#000080"/>
<path d="M11.0744 10.7817C11.1511 10.7817 11.2133 10.7195 11.2133 10.6428C11.2133 10.5661 11.1511 10.5039 11.0744 10.5039C10.9977 10.5039 10.9355 10.5661 10.9355 10.6428C10.9355 10.7195 10.9977 10.7817 11.0744 10.7817Z" fill="#000080"/>
<path d="M10.6428 11.2133C10.7195 11.2133 10.7817 11.1511 10.7817 11.0744C10.7817 10.9977 10.7195 10.9355 10.6428 10.9355C10.5661 10.9355 10.5039 10.9977 10.5039 11.0744C10.5039 11.1511 10.5661 11.2133 10.6428 11.2133Z" fill="#000080"/>
<path d="M10.3381 11.7426C10.4148 11.7426 10.477 11.6804 10.477 11.6037C10.477 11.527 10.4148 11.4648 10.3381 11.4648C10.2614 11.4648 10.1992 11.527 10.1992 11.6037C10.1992 11.6804 10.2614 11.7426 10.3381 11.7426Z" fill="#000080"/>
<path d="M10.1799 12.3325C10.2566 12.3325 10.3188 12.2703 10.3188 12.1936C10.3188 12.1169 10.2566 12.0547 10.1799 12.0547C10.1032 12.0547 10.041 12.1169 10.041 12.1936C10.041 12.2703 10.1032 12.3325 10.1799 12.3325Z" fill="#000080"/>
<path d="M10.1799 12.9438C10.2566 12.9438 10.3188 12.8816 10.3188 12.8049C10.3188 12.7282 10.2566 12.666 10.1799 12.666C10.1032 12.666 10.041 12.7282 10.041 12.8049C10.041 12.8816 10.1032 12.9438 10.1799 12.9438Z" fill="#000080"/>
<path d="M10.3381 13.5356C10.4148 13.5356 10.477 13.4734 10.477 13.3967C10.477 13.32 10.4148 13.2578 10.3381 13.2578C10.2614 13.2578 10.1992 13.32 10.1992 13.3967C10.1992 13.4734 10.2614 13.5356 10.3381 13.5356Z" fill="#000080"/>
<path d="M10.6428 14.0649C10.7195 14.0649 10.7817 14.0027 10.7817 13.926C10.7817 13.8493 10.7195 13.7871 10.6428 13.7871C10.5661 13.7871 10.5039 13.8493 10.5039 13.926C10.5039 14.0027 10.5661 14.0649 10.6428 14.0649Z" fill="#000080"/>
<path d="M11.0744 14.4965C11.1511 14.4965 11.2133 14.4343 11.2133 14.3576C11.2133 14.2809 11.1511 14.2188 11.0744 14.2188C10.9977 14.2188 10.9355 14.2809 10.9355 14.3576C10.9355 14.4343 10.9977 14.4965 11.0744 14.4965Z" fill="#000080"/>
<path d="M11.6037 14.8012C11.6804 14.8012 11.7426 14.739 11.7426 14.6623C11.7426 14.5856 11.6804 14.5234 11.6037 14.5234C11.527 14.5234 11.4648 14.5856 11.4648 14.6623C11.4648 14.739 11.527 14.8012 11.6037 14.8012Z" fill="#000080"/>
<path d="M12.1936 14.9594C12.2703 14.9594 12.3325 14.8972 12.3325 14.8205C12.3325 14.7438 12.2703 14.6816 12.1936 14.6816C12.1169 14.6816 12.0547 14.7438 12.0547 14.8205C12.0547 14.8972 12.1169 14.9594 12.1936 14.9594Z" fill="#000080"/>
<path d="M12.8049 14.9594C12.8816 14.9594 12.9438 14.8972 12.9438 14.8205C12.9438 14.7438 12.8816 14.6816 12.8049 14.6816C12.7282 14.6816 12.666 14.7438 12.666 14.8205C12.666 14.8972 12.7282 14.9594 12.8049 14.9594Z" fill="#000080"/>
<path d="M13.3967 14.8012C13.4734 14.8012 13.5356 14.739 13.5356 14.6623C13.5356 14.5856 13.4734 14.5234 13.3967 14.5234C13.32 14.5234 13.2578 14.5856 13.2578 14.6623C13.2578 14.739 13.32 14.8012 13.3967 14.8012Z" fill="#000080"/>
<path d="M13.926 14.4965C14.0027 14.4965 14.0649 14.4343 14.0649 14.3576C14.0649 14.2809 14.0027 14.2188 13.926 14.2188C13.8493 14.2188 13.7871 14.2809 13.7871 14.3576C13.7871 14.4343 13.8493 14.4965 13.926 14.4965Z" fill="#000080"/>
<path d="M14.3576 14.0649C14.4343 14.0649 14.4965 14.0027 14.4965 13.926C14.4965 13.8493 14.4343 13.7871 14.3576 13.7871C14.2809 13.7871 14.2188 13.8493 14.2188 13.926C14.2188 14.0027 14.2809 14.0649 14.3576 14.0649Z" fill="#000080"/>
<path d="M14.6623 13.5356C14.739 13.5356 14.8012 13.4734 14.8012 13.3967C14.8012 13.32 14.739 13.2578 14.6623 13.2578C14.5856 13.2578 14.5234 13.32 14.5234 13.3967C14.5234 13.4734 14.5856 13.5356 14.6623 13.5356Z" fill="#000080"/>
<path d="M14.8205 12.9438C14.8972 12.9438 14.9594 12.8816 14.9594 12.8049C14.9594 12.7282 14.8972 12.666 14.8205 12.666C14.7438 12.666 14.6816 12.7282 14.6816 12.8049C14.6816 12.8816 14.7438 12.9438 14.8205 12.9438Z" fill="#000080"/>
<path d="M14.8205 12.3325C14.8972 12.3325 14.9594 12.2703 14.9594 12.1936C14.9594 12.1169 14.8972 12.0547 14.8205 12.0547C14.7438 12.0547 14.6816 12.1169 14.6816 12.1936C14.6816 12.2703 14.7438 12.3325 14.8205 12.3325Z" fill="#000080"/>
<path d="M14.6623 11.7426C14.739 11.7426 14.8012 11.6804 14.8012 11.6037C14.8012 11.527 14.739 11.4648 14.6623 11.4648C14.5856 11.4648 14.5234 11.527 14.5234 11.6037C14.5234 11.6804 14.5856 11.7426 14.6623 11.7426Z" fill="#000080"/>
<path d="M14.3576 11.2133C14.4343 11.2133 14.4965 11.1511 14.4965 11.0744C14.4965 10.9977 14.4343 10.9355 14.3576 10.9355C14.2809 10.9355 14.2188 10.9977 14.2188 11.0744C14.2188 11.1511 14.2809 11.2133 14.3576 11.2133Z" fill="#000080"/>
<path d="M13.926 10.7817C14.0027 10.7817 14.0649 10.7195 14.0649 10.6428C14.0649 10.5661 14.0027 10.5039 13.926 10.5039C13.8493 10.5039 13.7871 10.5661 13.7871 10.6428C13.7871 10.7195 13.8493 10.7817 13.926 10.7817Z" fill="#000080"/>
<path d="M13.3967 10.477C13.4734 10.477 13.5356 10.4148 13.5356 10.3381C13.5356 10.2614 13.4734 10.1992 13.3967 10.1992C13.32 10.1992 13.2578 10.2614 13.2578 10.3381C13.2578 10.4148 13.32 10.477 13.3967 10.477Z" fill="#000080"/>
<path d="M12.8049 10.3188C12.8816 10.3188 12.9438 10.2566 12.9438 10.1799C12.9438 10.1032 12.8816 10.041 12.8049 10.041C12.7282 10.041 12.666 10.1032 12.666 10.1799C12.666 10.2566 12.7282 10.3188 12.8049 10.3188Z" fill="#000080"/>
<path d="M12.5 13.125C12.8452 13.125 13.125 12.8452 13.125 12.5C13.125 12.1548 12.8452 11.875 12.5 11.875C12.1548 11.875 11.875 12.1548 11.875 12.5C11.875 12.8452 12.1548 13.125 12.5 13.125Z" fill="#000080"/>
</g>
<defs>
<clipPath id="clip0_886_206">
<rect width="25" height="25" fill="white"/>
</clipPath>
</defs>
</svg>
