<svg width="358" height="61" viewBox="0 0 358 61" fill="none" xmlns="http://www.w3.org/2000/svg">
<path opacity="0.4" d="M353.317 42.958C352.45 42.9664 351.601 43.4381 350.865 44.3204C350.129 45.2028 349.535 46.4612 349.148 47.9556L283.983 0H283.899H0V1.8042H283.73L348.811 49.6335C348.7 50.3973 348.64 51.1857 348.633 51.979C348.633 53.7632 348.908 55.5073 349.422 56.9908C349.937 58.4743 350.668 59.6305 351.524 60.3133C352.38 60.9961 353.322 61.1747 354.23 60.8267C355.139 60.4786 355.973 59.6194 356.628 58.3578C357.283 57.0962 357.729 55.4888 357.91 53.7389C358.091 51.989 357.998 50.1752 357.643 48.5268C357.289 46.8784 356.689 45.4696 355.918 44.4783C355.148 43.4871 354.243 42.958 353.317 42.958ZM353.317 57.3916C352.761 57.3916 352.217 57.0742 351.755 56.4794C351.293 55.8847 350.933 55.0393 350.72 54.0503C350.508 53.0613 350.452 51.973 350.56 50.9231C350.669 49.8731 350.937 48.9087 351.33 48.1517C351.723 47.3947 352.223 46.8792 352.768 46.6704C353.313 46.4616 353.878 46.5687 354.392 46.9784C354.905 47.3881 355.344 48.0818 355.653 48.9719C355.962 49.862 356.127 50.9085 356.127 51.979C356.127 53.4145 355.831 54.7912 355.304 55.8063C354.777 56.8214 354.062 57.3916 353.317 57.3916Z" fill="#A69A2F"/>
</svg>
