<svg width="20" height="20" viewBox="0 0 20 20" fill="none" xmlns="http://www.w3.org/2000/svg">
<mask id="path-1-inside-1_929_257" fill="white">
<path d="M10.0009 2.08398C10.9809 2.08368 11.9353 2.39756 12.7239 2.97954C13.5125 3.56153 14.0937 4.38096 14.3823 5.31759C14.671 6.25421 14.6518 7.25868 14.3275 8.18358C14.0033 9.10848 13.3911 9.90509 12.5809 10.4565C13.9872 10.9723 15.2071 11.8973 16.0833 13.1123C16.9595 14.3272 17.4521 15.7767 17.4975 17.274C17.5018 17.3571 17.4894 17.4402 17.4611 17.5185C17.4328 17.5967 17.3891 17.6686 17.3327 17.7297C17.2763 17.7909 17.2082 17.8402 17.1324 17.8747C17.0567 17.9092 16.9749 17.9282 16.8917 17.9306C16.8085 17.9331 16.7257 17.9189 16.648 17.8889C16.5704 17.8589 16.4996 17.8137 16.4396 17.7559C16.3797 17.6982 16.3319 17.629 16.2991 17.5526C16.2662 17.4761 16.249 17.3939 16.2484 17.3106C16.1987 15.6869 15.5188 14.1462 14.3527 13.0152C13.1865 11.8841 11.6258 11.2516 10.0013 11.2516C8.37673 11.2516 6.81602 11.8841 5.64988 13.0152C4.48374 14.1462 3.80381 15.6869 3.75419 17.3106C3.74922 17.4764 3.6786 17.6334 3.55787 17.7471C3.43714 17.8608 3.2762 17.9219 3.11044 17.9169C2.94468 17.9119 2.78768 17.8413 2.67399 17.7206C2.56029 17.5999 2.49921 17.4389 2.50419 17.2732C2.54981 15.776 3.04243 14.3267 3.91866 13.1119C4.79488 11.8971 6.0146 10.9723 7.42085 10.4565C6.61059 9.90509 5.99842 9.10848 5.67419 8.18358C5.34996 7.25868 5.33074 6.25421 5.61936 5.31759C5.90798 4.38096 6.48924 3.56153 7.27782 2.97954C8.0664 2.39756 9.02077 2.08368 10.0009 2.08398ZM6.66752 6.66732C6.66752 7.55137 7.01871 8.39922 7.64383 9.02434C8.26895 9.64946 9.1168 10.0007 10.0009 10.0007C10.8849 10.0007 11.7328 9.64946 12.3579 9.02434C12.983 8.39922 13.3342 7.55137 13.3342 6.66732C13.3342 5.78326 12.983 4.93542 12.3579 4.3103C11.7328 3.68517 10.8849 3.33398 10.0009 3.33398C9.1168 3.33398 8.26895 3.68517 7.64383 4.3103C7.01871 4.93542 6.66752 5.78326 6.66752 6.66732Z"/>
</mask>
<path d="M10.0009 2.08398C10.9809 2.08368 11.9353 2.39756 12.7239 2.97954C13.5125 3.56153 14.0937 4.38096 14.3823 5.31759C14.671 6.25421 14.6518 7.25868 14.3275 8.18358C14.0033 9.10848 13.3911 9.90509 12.5809 10.4565C13.9872 10.9723 15.2071 11.8973 16.0833 13.1123C16.9595 14.3272 17.4521 15.7767 17.4975 17.274C17.5018 17.3571 17.4894 17.4402 17.4611 17.5185C17.4328 17.5967 17.3891 17.6686 17.3327 17.7297C17.2763 17.7909 17.2082 17.8402 17.1324 17.8747C17.0567 17.9092 16.9749 17.9282 16.8917 17.9306C16.8085 17.9331 16.7257 17.9189 16.648 17.8889C16.5704 17.8589 16.4996 17.8137 16.4396 17.7559C16.3797 17.6982 16.3319 17.629 16.2991 17.5526C16.2662 17.4761 16.249 17.3939 16.2484 17.3106C16.1987 15.6869 15.5188 14.1462 14.3527 13.0152C13.1865 11.8841 11.6258 11.2516 10.0013 11.2516C8.37673 11.2516 6.81602 11.8841 5.64988 13.0152C4.48374 14.1462 3.80381 15.6869 3.75419 17.3106C3.74922 17.4764 3.6786 17.6334 3.55787 17.7471C3.43714 17.8608 3.2762 17.9219 3.11044 17.9169C2.94468 17.9119 2.78768 17.8413 2.67399 17.7206C2.56029 17.5999 2.49921 17.4389 2.50419 17.2732C2.54981 15.776 3.04243 14.3267 3.91866 13.1119C4.79488 11.8971 6.0146 10.9723 7.42085 10.4565C6.61059 9.90509 5.99842 9.10848 5.67419 8.18358C5.34996 7.25868 5.33074 6.25421 5.61936 5.31759C5.90798 4.38096 6.48924 3.56153 7.27782 2.97954C8.0664 2.39756 9.02077 2.08368 10.0009 2.08398ZM6.66752 6.66732C6.66752 7.55137 7.01871 8.39922 7.64383 9.02434C8.26895 9.64946 9.1168 10.0007 10.0009 10.0007C10.8849 10.0007 11.7328 9.64946 12.3579 9.02434C12.983 8.39922 13.3342 7.55137 13.3342 6.66732C13.3342 5.78326 12.983 4.93542 12.3579 4.3103C11.7328 3.68517 10.8849 3.33398 10.0009 3.33398C9.1168 3.33398 8.26895 3.68517 7.64383 4.3103C7.01871 4.93542 6.66752 5.78326 6.66752 6.66732Z" fill="#FDF8ED"/>
<path d="M10.0009 2.08398L9.99963 6.08399L10.0021 6.08398L10.0009 2.08398ZM12.5809 10.4565L10.3304 7.14957L3.89285 11.5305L11.2035 14.2119L12.5809 10.4565ZM17.4975 17.274L13.4994 17.3954L13.5006 17.4368L13.5027 17.4782L17.4975 17.274ZM16.2484 17.3106L20.2482 17.2802L20.2479 17.2343L20.2465 17.1885L16.2484 17.3106ZM10.0013 11.2516V7.25157V11.2516ZM3.75419 17.3106L-0.243946 17.1885L-0.244013 17.1907L3.75419 17.3106ZM2.50419 17.2732L-1.49396 17.1513L-1.49401 17.1532L2.50419 17.2732ZM7.42085 10.4565L8.79823 14.2119L16.1089 11.5305L9.67127 7.14957L7.42085 10.4565ZM6.66752 6.66732H2.66752H6.66752ZM10.0009 10.0007V14.0007V10.0007ZM13.3342 6.66732H17.3342H13.3342ZM10.0009 3.33398V-0.666015V3.33398ZM10.0021 6.08398C10.1268 6.08395 10.2483 6.12389 10.3486 6.19796L15.0991 -0.238878C13.6223 -1.32877 11.8351 -1.91658 9.99963 -1.91602L10.0021 6.08398ZM10.3486 6.19796C10.449 6.27203 10.523 6.37633 10.5597 6.49553L18.205 4.13964C17.6645 2.3856 16.5759 0.851017 15.0991 -0.238878L10.3486 6.19796ZM10.5597 6.49553C10.5965 6.61474 10.594 6.74258 10.5527 6.8603L18.1023 9.50687C18.7095 7.77478 18.7455 5.89367 18.205 4.13964L10.5597 6.49553ZM10.5527 6.8603C10.5115 6.97801 10.4336 7.0794 10.3304 7.14957L14.8313 13.7634C16.3487 12.7308 17.4951 11.2389 18.1023 9.50687L10.5527 6.8603ZM11.2035 14.2119C11.8602 14.4527 12.4298 14.8846 12.839 15.452L19.3276 10.7725C17.9843 8.90987 16.1143 7.4919 13.9582 6.70112L11.2035 14.2119ZM12.839 15.452C13.2481 16.0194 13.4781 16.6962 13.4994 17.3954L21.4957 17.1526C21.426 14.8572 20.6709 12.6351 19.3276 10.7725L12.839 15.452ZM13.5027 17.4782C13.4798 17.0294 13.5467 16.5805 13.6996 16.158L21.2226 18.879C21.432 18.2999 21.5237 17.6848 21.4923 17.0697L13.5027 17.4782ZM13.6996 16.158C13.8524 15.7354 14.0881 15.3476 14.3928 15.0173L20.2725 20.4421C20.6901 19.9895 21.0131 19.4581 21.2226 18.879L13.6996 16.158ZM14.3928 15.0173C14.6976 14.687 15.0652 14.4209 15.4741 14.2346L18.7908 21.5147C19.3511 21.2594 19.8549 20.8948 20.2725 20.4421L14.3928 15.0173ZM15.4741 14.2346C15.8831 14.0483 16.3251 13.9455 16.7743 13.9323L17.009 21.9289C17.6246 21.9108 18.2304 21.77 18.7908 21.5147L15.4741 14.2346ZM16.7743 13.9323C17.2235 13.9192 17.6708 13.9958 18.09 14.1578L15.2061 21.6199C15.7805 21.8419 16.3935 21.947 17.009 21.9289L16.7743 13.9323ZM18.09 14.1578C18.5091 14.3198 18.8917 14.5639 19.2153 14.8757L13.6639 20.6361C14.1074 21.0635 14.6317 21.3979 15.2061 21.6199L18.09 14.1578ZM19.2153 14.8757C19.5389 15.1876 19.797 15.5609 19.9743 15.9738L12.6238 19.1314C12.8669 19.6972 13.2205 20.2088 13.6639 20.6361L19.2153 14.8757ZM19.9743 15.9738C20.1517 16.3867 20.2448 16.8308 20.2482 17.2802L12.2485 17.3411C12.2532 17.9569 12.3808 18.5656 12.6238 19.1314L19.9743 15.9738ZM20.2465 17.1885C20.1651 14.5255 19.05 11.9988 17.1376 10.1439L11.5678 15.8865C11.9876 16.2936 12.2324 16.8483 12.2502 17.4328L20.2465 17.1885ZM17.1376 10.1439C15.2251 8.28894 12.6655 7.25157 10.0013 7.25157V15.2516C10.5861 15.2516 11.148 15.4793 11.5678 15.8865L17.1376 10.1439ZM10.0013 7.25157C7.33702 7.25157 4.77745 8.28894 2.86498 10.1439L8.43477 15.8865C8.85458 15.4793 9.41643 15.2516 10.0013 15.2516V7.25157ZM2.86498 10.1439C0.952517 11.9988 -0.162561 14.5255 -0.243945 17.1885L7.75232 17.4328C7.77019 16.8483 8.01496 16.2936 8.43477 15.8865L2.86498 10.1439ZM-0.244013 17.1907C-0.217175 16.2961 0.163953 15.4488 0.815531 14.8351L6.30021 20.6591C7.19324 19.8181 7.7156 18.6567 7.75239 17.4306L-0.244013 17.1907ZM0.815531 14.8351C1.46711 14.2215 2.33575 13.8919 3.23038 13.9187L2.99049 21.9151C4.21664 21.9519 5.40718 21.5001 6.30021 20.6591L0.815531 14.8351ZM3.23038 13.9187C4.12502 13.9455 4.97234 14.3267 5.58596 14.9782L-0.237982 20.4629C0.603019 21.3559 1.76433 21.8783 2.99049 21.9151L3.23038 13.9187ZM5.58596 14.9782C6.19958 15.6298 6.52923 16.4985 6.50239 17.3931L-1.49401 17.1532C-1.5308 18.3794 -1.07899 19.5699 -0.237982 20.4629L5.58596 14.9782ZM6.50233 17.395C6.52364 16.6959 6.75367 16.0191 7.16284 15.4518L0.674475 10.772C-0.668806 12.6344 -1.42401 14.8561 -1.49396 17.1513L6.50233 17.395ZM7.16284 15.4518C7.572 14.8846 8.14156 14.4527 8.79823 14.2119L6.04348 6.70111C3.88764 7.49182 2.01776 8.90959 0.674475 10.772L7.16284 15.4518ZM9.67127 7.14957C9.56814 7.0794 9.49023 6.97801 9.44896 6.8603L1.89942 9.50687C2.50661 11.2389 3.65305 12.7308 5.17044 13.7634L9.67127 7.14957ZM9.44896 6.8603C9.4077 6.74258 9.40525 6.61474 9.44198 6.49553L1.79674 4.13964C1.25623 5.89368 1.29222 7.77478 1.89942 9.50687L9.44896 6.8603ZM9.44198 6.49553C9.47872 6.37633 9.5527 6.27204 9.65306 6.19796L4.90258 -0.238878C3.42579 0.851017 2.33725 2.3856 1.79674 4.13964L9.44198 6.49553ZM9.65306 6.19796C9.75343 6.12389 9.87489 6.08395 9.99963 6.08398L10.0021 -1.91602C8.16665 -1.91658 6.37938 -1.32877 4.90258 -0.238878L9.65306 6.19796ZM2.66752 6.66732C2.66752 8.61224 3.44014 10.4775 4.8154 11.8528L10.4723 6.19591C10.5973 6.32094 10.6675 6.49051 10.6675 6.66732H2.66752ZM4.8154 11.8528C6.19067 13.228 8.05593 14.0007 10.0009 14.0007V6.00065C10.1777 6.00065 10.3472 6.07089 10.4723 6.19591L4.8154 11.8528ZM10.0009 14.0007C11.9458 14.0007 13.811 13.228 15.1863 11.8528L9.52945 6.19591C9.65447 6.07089 9.82404 6.00065 10.0009 6.00065V14.0007ZM15.1863 11.8528C16.5616 10.4775 17.3342 8.61224 17.3342 6.66732H9.33419C9.33419 6.49051 9.40443 6.32094 9.52945 6.19591L15.1863 11.8528ZM17.3342 6.66732C17.3342 4.7224 16.5616 2.85714 15.1863 1.48187L9.52945 7.13872C9.40443 7.0137 9.33419 6.84413 9.33419 6.66732H17.3342ZM15.1863 1.48187C13.811 0.106601 11.9458 -0.666015 10.0009 -0.666015V7.33398C9.82404 7.33398 9.65447 7.26375 9.52945 7.13872L15.1863 1.48187ZM10.0009 -0.666015C8.05593 -0.666015 6.19067 0.106601 4.8154 1.48187L10.4723 7.13872C10.3472 7.26375 10.1777 7.33398 10.0009 7.33398V-0.666015ZM4.8154 1.48187C3.44014 2.85714 2.66752 4.7224 2.66752 6.66732H10.6675C10.6675 6.84413 10.5973 7.0137 10.4723 7.13872L4.8154 1.48187Z" fill="#FDF8ED" mask="url(#path-1-inside-1_929_257)"/>
</svg>
