<svg width="442" height="77" viewBox="0 0 442 77" fill="none" xmlns="http://www.w3.org/2000/svg">
<g clip-path="url(#clip0_929_215)">
<path opacity="0.4" d="M342.909 42.3091C342.068 42.3174 341.244 42.7819 340.53 43.6509C339.816 44.52 339.239 45.7594 338.864 47.2313L275.618 0H275.536H0V1.77695H275.373L338.536 48.8838C338.428 49.636 338.37 50.4125 338.364 51.1938C338.364 52.9511 338.63 54.6689 339.13 56.1299C339.629 57.591 340.339 58.7298 341.17 59.4023C342 60.0747 342.914 60.2507 343.796 59.9079C344.677 59.565 345.487 58.7189 346.123 57.4763C346.759 56.2338 347.192 54.6506 347.367 52.9272C347.542 51.2037 347.452 49.4173 347.108 47.7938C346.764 46.1703 346.182 44.7827 345.434 43.8065C344.687 42.8302 343.808 42.3091 342.909 42.3091ZM342.909 56.5247C342.37 56.5247 341.842 56.212 341.394 55.6263C340.945 55.0405 340.596 54.208 340.389 53.2339C340.183 52.2598 340.129 51.1879 340.234 50.1539C340.339 49.1198 340.599 48.1699 340.981 47.4244C341.362 46.6788 341.848 46.1711 342.377 45.9654C342.906 45.7597 343.454 45.8653 343.953 46.2688C344.451 46.6723 344.877 47.3555 345.177 48.2322C345.476 49.1088 345.636 50.1395 345.636 51.1938C345.636 52.6077 345.349 53.9636 344.837 54.9633C344.326 55.963 343.632 56.5247 342.909 56.5247Z" fill="#A69A2F"/>
</g>
<defs>
<clipPath id="clip0_929_215">
<rect width="347" height="60" fill="white" transform="scale(1.00131)"/>
</clipPath>
</defs>
</svg>
