<svg width="163" height="48" viewBox="0 0 163 48" fill="none" xmlns="http://www.w3.org/2000/svg">
<g clip-path="url(#clip0_929_304)">
<path fill-rule="evenodd" clip-rule="evenodd" d="M156.64 47.9998H6.02691C2.70522 47.9998 0 45.2946 0 41.9998V5.99997C0 2.69326 2.70522 0 6.02691 0H156.64C159.958 0 162.667 2.69326 162.667 5.99997V41.9998C162.667 45.2946 159.958 47.9998 156.64 47.9998Z" fill="black"/>
<path d="M156.64 0.960594C159.426 0.960594 161.706 3.22592 161.706 5.99997V41.9998C161.706 44.7739 159.441 47.0392 156.64 47.0392H6.02691C3.24088 47.0392 0.960594 44.7739 0.960594 41.9998V5.99997C0.960594 3.22592 3.22592 0.960594 6.02691 0.960594H156.64ZM156.64 0H6.02691C2.70522 0 0 2.70523 0 5.99997V41.9998C0 45.3065 2.70522 47.9998 6.02691 47.9998H156.64C159.958 47.9998 162.667 45.3065 162.667 41.9998V5.99997C162.667 2.70523 159.958 0 156.64 0Z" fill="black"/>
<path d="M85.6943 15.8781C84.608 15.8781 83.6923 15.498 82.9681 14.7499C82.2499 14.0227 81.8489 13.0202 81.8669 11.9968C81.8669 10.9045 82.2379 9.97983 82.9681 9.24667C83.6893 8.49854 84.605 8.11849 85.6913 8.11849C86.7656 8.11849 87.6813 8.49854 88.4175 9.24667C89.1476 10.0038 89.5187 10.9285 89.5187 11.9968C89.5067 13.092 89.1357 14.0167 88.4175 14.7469C87.6963 15.501 86.7806 15.8781 85.6943 15.8781ZM53.3722 15.8781C52.3099 15.8781 51.3882 15.504 50.6341 14.7648C49.886 14.0287 49.5059 13.098 49.5059 11.9998C49.5059 10.9015 49.886 9.97086 50.6341 9.2347C51.3732 8.49555 52.2949 8.12149 53.3722 8.12149C53.8989 8.12149 54.4106 8.22622 54.9014 8.43869C55.3832 8.64518 55.7752 8.92647 56.0655 9.27061L56.1373 9.35739L55.3263 10.1534L55.2426 10.0546C54.7847 9.51001 54.1712 9.24368 53.3603 9.24368C52.6361 9.24368 52.0047 9.50103 51.484 10.0098C50.9603 10.5215 50.6939 11.1918 50.6939 12.0028C50.6939 12.8137 50.9603 13.4841 51.484 13.9958C52.0047 14.5045 52.6361 14.7619 53.3603 14.7619C54.1323 14.7619 54.7817 14.5045 55.2874 13.9958C55.5867 13.6965 55.7722 13.2776 55.8381 12.7479H53.2376V11.6287H56.9543L56.9692 11.7304C56.9962 11.919 57.0231 12.1135 57.0231 12.293C57.0231 13.3255 56.7119 14.1604 56.0954 14.7768C55.3952 15.507 54.4795 15.8781 53.3722 15.8781ZM96.3476 15.7195H95.2015L91.6913 10.1025L91.7212 11.114V15.7165H90.5751V8.28009H91.8828L91.9187 8.33695L95.2194 13.6277L95.1895 12.6192V8.28009H96.3476V15.7195ZM77.0819 15.7195H75.9208V9.39929H73.9068V8.28009H79.0928V9.39929H77.0789V15.7195H77.0819ZM72.9612 15.7195H71.8031V8.28009H72.9612V15.7195ZM66.4525 15.7195H65.2944V9.39929H63.2804V8.28009H68.4664V9.39929H66.4525V15.7195ZM62.5473 15.7075H58.1064V8.28009H62.5473V9.39929H59.2675V11.4402H62.2271V12.5474H59.2675V14.5883H62.5473V15.7075ZM83.818 13.9808C84.3357 14.4985 84.9641 14.7589 85.6943 14.7589C86.4454 14.7589 87.0589 14.5045 87.5706 13.9808C88.0793 13.4721 88.3367 12.8048 88.3367 11.9998C88.3367 11.1948 88.0793 10.5245 87.5736 10.0187C87.0559 9.50103 86.4245 9.24068 85.6973 9.24068C84.9462 9.24068 84.3327 9.49505 83.824 10.0187C83.3153 10.5275 83.0579 11.1948 83.0579 11.9998C83.0579 12.8048 83.3123 13.4751 83.818 13.9808Z" fill="white"/>
<path fill-rule="evenodd" clip-rule="evenodd" d="M81.76 26.1061C78.9321 26.1061 76.6398 28.2518 76.6398 31.2114C76.6398 34.144 78.9471 36.3166 81.76 36.3166C84.5879 36.3166 86.8802 34.156 86.8802 31.2114C86.8802 28.2518 84.5879 26.1061 81.76 26.1061ZM81.76 34.2936C80.2129 34.2936 78.8812 33.0128 78.8812 31.1994C78.8812 29.359 80.2159 28.1051 81.76 28.1051C83.3071 28.1051 84.6388 29.359 84.6388 31.1994C84.6418 33.0248 83.3071 34.2936 81.76 34.2936ZM70.589 26.1061C67.7611 26.1061 65.4688 28.2518 65.4688 31.2114C65.4688 34.144 67.776 36.3166 70.589 36.3166C73.4169 36.3166 75.7092 34.156 75.7092 31.2114C75.7092 28.2518 73.4139 26.1061 70.589 26.1061ZM70.589 34.2936C69.0419 34.2936 67.7102 33.0128 67.7102 31.1994C67.7102 29.359 69.0449 28.1051 70.589 28.1051C72.1361 28.1051 73.4678 29.359 73.4678 31.1994C73.4678 33.0248 72.1361 34.2936 70.589 34.2936ZM57.2963 27.6652V29.8258H62.4823C62.3237 31.0378 61.9227 31.9325 61.3092 32.546C60.5491 33.3061 59.3761 34.132 57.3082 34.132C54.1212 34.132 51.6285 31.5585 51.6285 28.3715C51.6285 25.1844 54.1212 22.6109 57.3082 22.6109C59.0289 22.6109 60.2828 23.2902 61.2135 24.158L62.7456 22.6259C61.4529 21.387 59.7322 20.4383 57.3202 20.4383C52.9482 20.4383 49.2793 23.9994 49.2793 28.3595C49.2793 32.7315 52.9452 36.2807 57.3202 36.2807C59.6813 36.2807 61.4529 35.5086 62.8534 34.0542C64.2808 32.6268 64.7327 30.6129 64.7327 28.9879C64.7327 28.4822 64.6938 28.0273 64.613 27.6413H57.2933C57.2963 27.6383 57.2963 27.6652 57.2963 27.6652ZM111.667 29.347C111.239 28.2009 109.946 26.0942 107.295 26.0942C104.668 26.0942 102.483 28.162 102.483 31.1994C102.483 34.0662 104.644 36.3046 107.549 36.3046C109.884 36.3046 111.242 34.8772 111.802 34.0393L110.069 32.8782C109.495 33.731 108.696 34.2906 107.561 34.2906C106.415 34.2906 105.613 33.7699 105.081 32.7435L111.907 29.9156C111.907 29.9186 111.667 29.347 111.667 29.347ZM104.707 31.0527C104.653 29.0807 106.239 28.0782 107.373 28.0782C108.268 28.0782 109.013 28.5181 109.267 29.1585L104.707 31.0527ZM99.1614 35.9994H101.403V21.0009H99.1614V35.9994ZM95.4806 27.2403H95.3998C94.8941 26.6388 93.9335 26.0942 92.7066 26.0942C90.16 26.0942 87.8138 28.3356 87.8138 31.2143C87.8138 34.0812 90.148 36.2956 92.7066 36.2956C93.9186 36.2956 94.8941 35.748 95.3998 35.1345H95.4806V35.8677C95.4806 37.8158 94.4393 38.8662 92.7605 38.8662C91.3869 38.8662 90.534 37.8787 90.1869 37.0527L88.2388 37.8667C88.7984 39.2133 90.2916 40.8801 92.7575 40.8801C95.3849 40.8801 97.6113 39.333 97.6113 35.5595V26.3994H95.4926V27.2403C95.4956 27.2403 95.4806 27.2403 95.4806 27.2403ZM92.9071 34.2936C91.36 34.2936 90.0672 33.0009 90.0672 31.2143C90.0672 29.4129 91.36 28.1081 92.9071 28.1081C94.4393 28.1081 95.6273 29.4278 95.6273 31.2143C95.6422 33.0009 94.4423 34.2936 92.9071 34.2936ZM122.162 21.0009H116.802V35.9994H119.044V30.3196H122.165C124.646 30.3196 127.085 28.5211 127.085 25.6662C127.085 22.8114 124.655 21.0009 122.162 21.0009ZM122.228 28.2248H119.041V23.0777H122.228C123.906 23.0777 124.855 24.4633 124.855 25.6513C124.855 26.8273 123.894 28.2248 122.228 28.2248ZM136.068 26.0792C134.44 26.0792 132.761 26.8004 132.067 28.3715L134.054 29.1974C134.482 28.3715 135.266 28.0902 136.095 28.0902C137.256 28.0902 138.429 28.7844 138.456 30.0233V30.1819C138.055 29.9545 137.175 29.6074 136.122 29.6074C133.976 29.6074 131.801 30.7804 131.801 32.9799C131.801 34.9939 133.56 36.2866 135.52 36.2866C137.026 36.2866 137.855 35.6073 138.372 34.8203H138.453V35.9814H140.614V30.2358C140.614 27.5605 138.627 26.0792 136.068 26.0792ZM135.787 34.2936C135.054 34.2936 134.027 33.9345 134.027 33.0128C134.027 31.8517 135.308 31.4118 136.4 31.4118C137.388 31.4118 137.855 31.6243 138.441 31.9176C138.279 33.2642 137.142 34.2817 135.787 34.2936ZM148.496 26.3994L145.922 32.9051H145.842L143.175 26.3994H140.763L144.764 35.4936L142.484 40.548H144.818L150.974 26.3994H148.496ZM128.32 35.9994H130.562V21.0009H128.32V35.9994Z" fill="white"/>
<path d="M12.5208 9.04015C12.1736 9.41421 11.9731 9.98578 11.9731 10.7339V37.2685C11.9731 38.0166 12.1736 38.5881 12.5327 38.9472L12.6255 39.028L27.4923 24.1613V23.8291L12.6135 8.95935L12.5208 9.04015Z" fill="white" stroke="black" stroke-width="0.0598477"/>
<path d="M32.4402 29.1322L27.4816 24.1737V23.8265L32.4402 18.868L32.5479 18.9338L38.4132 22.2674C40.092 23.2131 40.092 24.7752 38.4132 25.7328L32.5479 29.0664L32.4402 29.1322Z" fill="white" stroke="black" stroke-width="0.0598477"/>
<path d="M32.5459 29.0663L27.4796 24L12.52 38.9595C13.0677 39.5461 13.9864 39.6119 15.0128 39.0403L32.5459 29.0663Z" fill="white" stroke="black" stroke-width="0.0598477"/>
<path d="M32.5459 18.9333L15.0128 8.97419C13.9864 8.38766 13.0647 8.46846 12.52 9.05499L27.4796 23.9996L32.5459 18.9333Z" fill="white" stroke="black" stroke-width="0.0598477"/>
<path opacity="0.2" fill-rule="evenodd" clip-rule="evenodd" d="M32.4379 28.9582L15.0245 38.8514C14.052 39.411 13.1841 39.3721 12.6245 38.8634L12.5318 38.9562L12.6245 39.037C13.1841 39.5427 14.052 39.5846 15.0245 39.025L32.5576 29.0659L32.4379 28.9582Z" fill="black"/>
<path opacity="0.12" fill-rule="evenodd" clip-rule="evenodd" d="M38.4112 25.5591L32.4232 28.9586L32.5309 29.0663L38.3962 25.7327C39.2371 25.2539 39.6501 24.6254 39.6501 24C39.5992 24.5746 39.1713 25.1192 38.4112 25.5591Z" fill="black"/>
<path opacity="0.25" fill-rule="evenodd" clip-rule="evenodd" d="M15.0135 9.1481L38.4119 22.4408C39.172 22.8687 39.6 23.4283 39.6658 23.9999C39.6658 23.3745 39.2528 22.746 38.4119 22.2672L15.0135 8.97454C13.3347 8.01394 11.9731 8.81594 11.9731 10.7341V10.9077C11.9731 8.98651 13.3347 8.19948 15.0135 9.1481Z" fill="white"/>
</g>
<defs>
<clipPath id="clip0_929_304">
<rect width="162.66" height="47.9978" fill="white"/>
</clipPath>
</defs>
</svg>
