<svg width="382" height="60" viewBox="0 0 382 60" fill="none" xmlns="http://www.w3.org/2000/svg">
<path opacity="0.4" d="M0 51.1269C0 53.4802 0.526509 55.7371 1.4637 57.4011C2.40089 59.0652 3.67199 60 4.99738 60C6.32277 60 7.59388 59.0652 8.53107 57.4011C9.46826 55.7371 9.99477 53.4802 9.99477 51.1269C9.98775 50.3466 9.92392 49.5711 9.80487 48.8199L79.2485 1.77462H382V0H79.0686H78.9587L9.44505 47.1695C8.93568 45.4036 8.1077 43.9919 7.09337 43.1597C6.07904 42.3275 4.9369 42.1228 3.84939 42.5785C2.76188 43.0342 1.79174 44.1238 1.09397 45.6734C0.396188 47.2229 0.0110235 49.143 0 51.1269ZM1.99895 51.1269C1.99895 50.0739 2.17481 49.0446 2.50428 48.1691C2.83375 47.2936 3.30204 46.6112 3.84993 46.2083C4.39783 45.8053 5.00071 45.6999 5.58235 45.9053C6.16399 46.1107 6.69826 46.6178 7.11759 47.3623C7.53693 48.1069 7.8225 49.0555 7.9382 50.0882C8.05389 51.121 7.99452 52.1914 7.76757 53.1642C7.54063 54.137 7.15631 54.9685 6.66322 55.5535C6.17013 56.1385 5.59042 56.4507 4.99738 56.4507C4.20215 56.4507 3.43949 55.8898 2.87717 54.8914C2.31486 53.893 1.99895 52.5389 1.99895 51.1269Z" fill="#A69A2F"/>
</svg>
