<svg width="413" height="84" viewBox="0 0 413 84" fill="none" xmlns="http://www.w3.org/2000/svg">
<g clip-path="url(#clip0_929_225)">
<g clip-path="url(#clip1_929_225)">
<path opacity="0.4" d="M17 63.6832C17 66.1542 17.5844 68.5239 18.6246 70.2712C19.6649 72.0184 21.0757 73 22.5468 73C24.0179 73 25.4288 72.0184 26.469 70.2712C27.5093 68.5239 28.0937 66.1542 28.0937 63.6832C28.0859 62.8639 28.015 62.0497 27.8829 61.2609L104.962 11.8634H441V10H104.762H104.64L27.4835 59.5279C26.9181 57.6738 25.9991 56.1915 24.8733 55.3176C23.7474 54.4438 22.4797 54.229 21.2726 54.7074C20.0655 55.1859 18.9887 56.33 18.2142 57.957C17.4397 59.5841 17.0122 61.6002 17 63.6832ZM19.2187 63.6832C19.2187 62.5776 19.4139 61.4968 19.7796 60.5776C20.1453 59.6583 20.6651 58.9418 21.2732 58.5187C21.8814 58.0956 22.5505 57.9849 23.1961 58.2006C23.8417 58.4163 24.4347 58.9487 24.9002 59.7305C25.3656 60.5122 25.6826 61.5083 25.811 62.5927C25.9394 63.677 25.8735 64.801 25.6216 65.8225C25.3697 66.8439 24.9431 67.7169 24.3958 68.3312C23.8485 68.9454 23.2051 69.2733 22.5468 69.2733C21.6642 69.2733 20.8177 68.6843 20.1935 67.636C19.5694 66.5877 19.2187 65.1658 19.2187 63.6832Z" fill="#A69A2F"/>
</g>
</g>
<defs>
<clipPath id="clip0_929_225">
<rect width="413" height="84" fill="white"/>
</clipPath>
<clipPath id="clip1_929_225">
<rect width="424" height="63" fill="white" transform="translate(17 10)"/>
</clipPath>
</defs>
</svg>
