<svg width="14" height="14" viewBox="0 0 14 14" fill="none" xmlns="http://www.w3.org/2000/svg">
<g clip-path="url(#clip0_929_325)">
<path d="M0.458694 13.7568C0.511116 13.7568 0.561354 13.7458 0.609407 13.7238C0.657461 13.7019 0.70333 13.6733 0.747015 13.6381L7.70605 7.33015C7.74974 7.28616 7.78469 7.23557 7.8109 7.17839C7.83711 7.12121 7.85021 7.06182 7.85021 7.00024C7.85021 6.93865 7.83711 6.87927 7.8109 6.82208C7.78469 6.7649 7.74974 6.71431 7.70605 6.67033L0.747015 0.362408C0.70333 0.318419 0.655277 0.285428 0.602855 0.263433C0.550432 0.24144 0.493642 0.230442 0.432483 0.230442C0.371323 0.230442 0.314533 0.24144 0.262111 0.263433C0.209689 0.285428 0.166003 0.318419 0.131055 0.362408C0.0873702 0.397598 0.0546064 0.441586 0.0327638 0.494372C0.0109213 0.547158 0 0.604342 0 0.665926C0 0.727509 0.0109213 0.784695 0.0327638 0.837481C0.0546064 0.890266 0.0873702 0.934255 0.131055 0.969445L6.74935 7.00024L0.157266 12.9914C0.113581 13.0266 0.0808175 13.0728 0.0589749 13.13C0.0371323 13.1872 0.0262111 13.2422 0.0262111 13.295C0.0262111 13.3565 0.0371323 13.4137 0.0589749 13.4665C0.0808175 13.5193 0.113581 13.5677 0.157266 13.6117C0.192214 13.6557 0.2359 13.6909 0.288322 13.7172C0.340744 13.7436 0.397535 13.7568 0.458694 13.7568Z" fill="#233470"/>
</g>
<defs>
<clipPath id="clip0_929_325">
<rect width="13.407" height="14" fill="white" transform="matrix(1 0 0 -1 0 14)"/>
</clipPath>
</defs>
</svg>
